name Walk8.mot
datacolumns 19
datarows 25
range 1.16000000 1.28000000
endheader

                time	   L_ground_force_vx	   L_ground_force_vy	   L_ground_force_vz	   L_ground_force_px	   L_ground_force_py	   L_ground_force_pz	   R_ground_force_vx	   R_ground_force_vy	   R_ground_force_vz	   R_ground_force_px	   R_ground_force_py	   R_ground_force_pz	   L_ground_torque_x	   L_ground_torque_y	   L_ground_torque_z	   R_ground_torque_x	   R_ground_torque_y	   R_ground_torque_z	
          1.16000000	          0.13389012	         68.53741576	         -5.88494841	          0.00184038	          0.00000000	          0.00220867	          0.00000000	         -0.00000002	          0.00000000	         -0.00000000	          0.00000000	         -0.00000000	          0.00000000	          0.12552410	          0.00000000	          0.00000000	         -0.00000000	          0.00000000	
          1.16500000	         -1.78246791	         98.03294002	         -8.71305868	         -0.05983970	          0.00000000	         -0.00376572	          0.00000001	         -0.00000003	          0.00000000	         -0.00000000	          0.00000000	         -0.00000000	          0.00000000	          0.20067040	          0.00000000	          0.00000000	          0.00000000	          0.00000000	
          1.17000000	         -4.89897628	        130.56332390	        -11.75305975	         -0.11746469	          0.00000000	         -0.00929602	          0.00000001	         -0.00000004	          0.00000000	         -0.00000000	          0.00000000	         -0.00000000	          0.00000000	          0.29625988	          0.00000000	          0.00000000	          0.00000000	          0.00000000	
          1.17500000	         -9.41601930	        164.24510614	        -14.81943226	         -0.16789911	          0.00000000	         -0.01410691	          0.00000001	         -0.00000005	          0.00000000	         -0.00000000	          0.00000000	         -0.00000000	          0.00000000	          0.41148880	          0.00000000	          0.00000000	          0.00000000	          0.00000000	
          1.18000000	        -15.35971377	        197.09717593	        -17.70239736	         -0.20957728	          0.00000000	         -0.01808438	          0.00000001	         -0.00000006	          0.00000000	         -0.00000000	          0.00000000	         -0.00000000	          0.00000000	          0.54366564	          0.00000000	          0.00000000	          0.00000000	          0.00000000	
          1.18500000	        -22.48786792	        227.92990325	        -20.22089446	         -0.24219575	          0.00000000	         -0.02123078	          0.00000001	         -0.00000007	          0.00000000	         -0.00000000	          0.00000000	         -0.00000000	          0.00000000	          0.68897838	          0.00000000	          0.00000000	          0.00000000	          0.00000000	
          1.19000000	        -30.34595151	        256.29768635	        -22.26002538	         -0.26628688	          0.00000000	         -0.02361811	          0.00000001	         -0.00000008	          0.00000000	         -0.00000000	          0.00000000	         -0.00000000	          0.00000000	          0.84271775	          0.00000000	          0.00000000	          0.00000000	          0.00000000	
          1.19500000	        -38.37772614	        282.20171845	        -23.77068556	         -0.28287319	          0.00000000	         -0.02535276	          0.00000001	         -0.00000009	          0.00000000	         -0.00000000	          0.00000000	         -0.00000000	          0.00000000	          0.99957208	          0.00000000	          0.00000000	          0.00000000	          0.00000000	
          1.20000000	        -46.03604958	        305.97845200	        -24.75032680	         -0.29320765	          0.00000000	         -0.02655494	          0.00000001	         -0.00000008	          0.00000000	         -0.00000000	          0.00000000	         -0.00000000	          0.00000000	          1.15417069	          0.00000000	          0.00000000	          0.00000000	          0.00000000	
          1.20500000	        -52.90468249	        328.16224860	        -25.22128097	         -0.29858365	          0.00000000	         -0.02734423	          0.00000001	         -0.00000007	          0.00000000	          0.00000000	          0.00000000	          0.00000000	          0.00000000	          1.30160512	          0.00000000	          0.00000000	          0.00000000	          0.00000000	
          1.21000000	        -58.79503642	        349.31945092	        -25.20775758	         -0.30020440	          0.00000000	         -0.02783021	          0.00000000	         -0.00000004	         -0.00000000	          0.00000000	          0.00000000	          0.00000000	          0.00000000	          1.43786212	          0.00000000	          0.00000000	          0.00000000	          0.00000000	
          1.21500000	        -63.76157823	        369.92734489	        -24.72159560	         -0.29911302	          0.00000000	         -0.02811194	         -0.00000001	          0.00000002	         -0.00000000	          0.00000000	          0.00000000	          0.00000000	          0.00000000	          1.55970502	          0.00000000	          0.00000000	          0.00000000	          0.00000000	
          1.22000000	        -68.01628860	        390.30773850	        -23.75973323	         -0.29617042	          0.00000000	         -0.02827519	         -0.00000003	          0.00000010	         -0.00000001	          0.00000000	          0.00000000	          0.00000000	          0.00000000	          1.66467144	          0.00000000	          0.00000000	          0.00000000	          0.00000000	
          1.22500000	        -71.80157242	        410.59207580	        -22.31031341	         -0.29206059	          0.00000000	         -0.02838699	         -0.00000005	          0.00000022	         -0.00000001	          0.00000000	          0.00000000	          0.00000000	          0.00000000	          1.75124513	          0.00000000	          0.00000000	          0.00000000	          0.00000000	
          1.23000000	        -75.29433482	        430.71069384	        -20.36330283	         -0.28731242	          0.00000000	         -0.02849405	         -0.00000008	          0.00000038	         -0.00000002	          0.00000000	          0.00000000	          0.00000000	          0.00000000	          1.81904789	          0.00000000	          0.00000000	          0.00000000	          0.00000000	
          1.23500000	        -78.56786753	        450.40053510	        -17.92382053	         -0.28232939	          0.00000000	         -0.02862530	         -0.00000012	          0.00000058	         -0.00000003	          0.00000000	          0.00000000	          0.00000000	          0.00000000	          1.86889014	          0.00000000	          0.00000000	         -0.00000000	          0.00000000	
          1.24000000	        -81.59737648	        469.25279641	        -15.02462513	         -0.27741143	          0.00000000	         -0.02879518	         -0.00000016	          0.00000081	         -0.00000004	          0.00000000	          0.00000000	          0.00000000	          0.00000000	          1.90281212	          0.00000000	          0.00000000	         -0.00000000	          0.00000000	
          1.24500000	        -84.29088960	        486.81847658	        -11.72909610	         -0.27277040	          0.00000000	         -0.02900714	         -0.00000020	          0.00000108	         -0.00000005	          0.00000000	          0.00000000	          0.00000000	          0.00000000	          1.92383785	          0.00000000	          0.00000000	         -0.00000000	          0.00000000	
          1.25000000	        -86.53648870	        502.70465519	         -8.12494611	         -0.26854488	          0.00000000	         -0.02925701	         -0.00000025	          0.00000137	         -0.00000005	          0.00000000	          0.00000000	          0.00000000	          0.00000000	          1.93519194	          0.00000000	          0.00000000	         -0.00000000	          0.00000000	
          1.25500000	        -88.24502184	        516.61918601	         -4.31689670	         -0.26481232	          0.00000000	         -0.02953578	         -0.00000029	          0.00000165	         -0.00000006	          0.00000000	          0.00000000	          0.00000000	          0.00000000	          1.93958878	          0.00000000	          0.00000000	         -0.00000000	          0.00000000	
          1.26000000	        -89.36684617	        528.39290057	         -0.41804584	         -0.26160085	          0.00000000	         -0.02983250	         -0.00000031	          0.00000188	         -0.00000007	          0.00000000	          0.00000000	          0.00000000	          0.00000000	          1.93883428	          0.00000000	          0.00000000	         -0.00000000	          0.00000000	
          1.26500000	        -89.89065784	        537.99280849	          3.45712565	         -0.25890297	          0.00000000	         -0.03013508	         -0.00000031	          0.00000201	         -0.00000006	          0.00000000	          0.00000000	          0.00000000	          0.00000000	          1.93386385	          0.00000000	          0.00000000	         -0.00000000	          0.00000000	
          1.27000000	        -89.83762624	        545.51493343	          7.19757866	         -0.25668753	          0.00000000	         -0.03043299	         -0.00000028	          0.00000197	         -0.00000005	          0.00000000	          0.00000000	          0.00000000	          0.00000000	          1.92524123	          0.00000000	          0.00000000	         -0.00000000	          0.00000000	
          1.27500000	        -89.25172677	        551.16213554	         10.70068310	         -0.25490915	          0.00000000	         -0.03071804	         -0.00000019	          0.00000166	         -0.00000003	         -0.00000000	          0.00000000	         -0.00000000	          0.00000000	          1.91344308	          0.00000000	          0.00000000	         -0.00000000	          0.00000000	
          1.28000000	        -88.18772062	        555.21682000	         13.87762238	         -0.25351372	          0.00000000	         -0.03098318	         -0.00000003	          0.00000097	          0.00000001	         -0.00000000	          0.00000000	         -0.00000000	          0.00000000	          1.89865836	          0.00000000	          0.00000000	         -0.00000000	          0.00000000	
